<svg width="80" height="80" viewBox="0 0 80 80" fill="none" xmlns="http://www.w3.org/2000/svg">
  <!-- Moth wings (left) -->
  <path d="M20 40 Q10 30, 15 20 Q20 15, 30 18 Q35 25, 32 35 Q25 42, 20 40 Z" fill="#DC2626"/>
  <!-- Wing patterns -->
  <path d="M22 35 Q25 30, 28 32 Q26 35, 22 35" fill="#F59E0B"/>
  <path d="M18 28 Q22 25, 25 27 Q23 30, 18 28" fill="#F59E0B"/>

  <!-- Moth wings (right) -->
  <path d="M60 40 Q70 30, 65 20 Q60 15, 50 18 Q45 25, 48 35 Q55 42, 60 40 Z" fill="#DC2626"/>
  <!-- Wing patterns -->
  <path d="M58 35 Q55 30, 52 32 Q54 35, 58 35" fill="#F59E0B"/>
  <path d="M62 28 Q58 25, 55 27 Q57 30, 62 28" fill="#F59E0B"/>

  <!-- Body -->
  <ellipse cx="40" cy="40" rx="8" ry="15" fill="#6B7280"/>
  <!-- Head -->
  <circle cx="40" cy="25" r="6" fill="#6B7280"/>
  <!-- Antennae -->
  <path d="M37 20 Q35 15, 37 12 M43 20 Q45 15, 43 12" stroke="#6B7280" stroke-width="2" stroke-linecap="round"/>
  <!-- Eyes -->
  <circle cx="38" cy="23" r="1.5" fill="#1F2937"/>
  <circle cx="42" cy="23" r="1.5" fill="#1F2937"/>
  <!-- Legs -->
  <path d="M32 45 L28 50 M32 50 L28 55 M48 45 L52 50 M48 50 L52 55" stroke="#6B7280" stroke-width="2" stroke-linecap="round"/>
</svg>
