<svg width="80" height="80" viewBox="0 0 80 80" fill="none" xmlns="http://www.w3.org/2000/svg">
  <!-- Elephant body -->
  <ellipse cx="40" cy="50" rx="25" ry="15" fill="#6B7280"/>
  <!-- Head -->
  <circle cx="40" cy="35" r="20" fill="#6B7280"/>
  <!-- Trunk -->
  <path d="M40 35 Q35 40, 30 50 Q25 55, 30 60" fill="#6B7280"/>
  <!-- Legs -->
  <rect x="25" y="60" width="6" height="15" fill="#6B7280"/>
  <rect x="35" y="60" width="6" height="15" fill="#6B7280"/>
  <rect x="45" y="60" width="6" height="15" fill="#6B7280"/>
  <rect x="55" y="60" width="6" height="15" fill="#6B7280"/>
  <!-- Ears -->
  <ellipse cx="25" cy="30" rx="8" ry="12" fill="#6B7280"/>
  <ellipse cx="55" cy="30" rx="8" ry="12" fill="#6B7280"/>
  <!-- Tusks -->
  <path d="M32 42 L28 50 M48 42 L52 50" stroke="#F8F9FA" stroke-width="3" stroke-linecap="round"/>
  <!-- Eye -->
  <circle cx="35" cy="30" r="2" fill="#1F2937"/>
  <!-- Tail -->
  <path d="M65 45 Q70 40, 68 35" stroke="#6B7280" stroke-width="3" fill="none"/>
</svg>
