<svg width="80" height="80" viewBox="0 0 80 80" fill="none" xmlns="http://www.w3.org/2000/svg">
  <!-- Peacock body -->
  <ellipse cx="40" cy="45" rx="15" ry="20" fill="#1E40AF"/>
  <!-- Head -->
  <circle cx="40" cy="25" r="12" fill="#1E40AF"/>
  <!-- Beak -->
  <path d="M40 30 L45 32 L40 34 Z" fill="#F59E0B"/>
  <!-- Eye -->
  <circle cx="36" cy="23" r="2" fill="#1F2937"/>
  <circle cx="36" cy="23" r="1" fill="#F8F9FA"/>
  <!-- Crest feathers -->
  <path d="M35 15 Q40 10, 45 15 Q42 12, 38 12 Q34 12, 35 15" fill="#059669"/>
  <path d="M32 18 Q37 13, 42 18 Q39 15, 35 15 Q31 15, 32 18" fill="#059669"/>
  <path d="M38 12 Q43 7, 48 12 Q45 9, 41 9 Q37 9, 38 12" fill="#059669"/>
  <!-- Tail fan (simplified) -->
  <path d="M55 35 Q70 25, 75 40 Q70 55, 55 45" fill="#7C3AED"/>
  <path d="M60 30 Q75 20, 80 35 Q75 50, 60 40" fill="#059669"/>
  <path d="M65 32 Q80 22, 85 37 Q80 52, 65 42" fill="#DC2626"/>
  <!-- Legs -->
  <rect x="35" y="60" width="3" height="15" fill="#6B7280"/>
  <rect x="42" y="60" width="3" height="15" fill="#6B7280"/>
</svg>
